<svg width="134" height="35" viewBox="0 0 134 35" fill="none" xmlns="http://www.w3.org/2000/svg">
<path d="M49.868 25.273L46.9531 20.2349C46.8452 20.0549 46.6652 19.947 46.4493 19.947H44.9379C44.614 19.947 44.3621 20.1989 44.3621 20.5228V24.9851C44.3621 25.3089 44.1102 25.5608 43.7863 25.5608H41.7711C41.4472 25.5608 41.1953 25.3089 41.1953 24.9851V10.0147C41.1953 9.69087 41.4472 9.43896 41.7711 9.43896H47.6369C49.1123 9.43896 50.4078 9.97876 51.4514 11.0224C52.495 12.066 53.0348 13.3255 53.0348 14.8009C53.0348 15.8085 52.7469 16.7082 52.1712 17.5719C51.7033 18.2556 51.1275 18.7954 50.4438 19.2273C50.1559 19.4072 50.048 19.7311 50.2279 20.0189L52.9988 24.6972C53.2148 25.093 52.9628 25.5608 52.495 25.5608H50.4078C50.1559 25.5608 49.976 25.4529 49.868 25.273ZM44.3621 13.0016V16.6002C44.3621 16.9241 44.614 17.176 44.9379 17.176H47.6369C48.2486 17.176 48.7524 16.9241 49.1843 16.4563C49.6161 15.9885 49.832 15.4127 49.832 14.7649C49.832 14.1172 49.6161 13.5414 49.1843 13.0736C48.7524 12.6058 48.2486 12.3898 47.6369 12.3898H44.9379C44.614 12.4258 44.3621 12.6777 44.3621 13.0016Z" fill="#474747"/>
<path d="M59.1171 22.538H64.767C65.0908 22.538 65.3427 22.7899 65.3427 23.1138V24.9851C65.3427 25.3089 65.0908 25.5608 64.767 25.5608H55.9503C55.6264 25.5608 55.3745 25.3089 55.3745 24.9851V10.0147C55.3745 9.69087 55.6264 9.43896 55.9503 9.43896H64.659C64.9829 9.43896 65.2348 9.69087 65.2348 10.0147V11.886C65.2348 12.2099 64.9829 12.4618 64.659 12.4618H59.1171C58.7932 12.4618 58.5413 12.7137 58.5413 13.0376V15.3047C58.5413 15.6286 58.7932 15.8805 59.1171 15.8805H64.0832C64.4071 15.8805 64.659 16.1324 64.659 16.4563V18.2916C64.659 18.6155 64.4071 18.8674 64.0832 18.8674H59.1171C58.7932 18.8674 58.5413 19.1193 58.5413 19.4432V21.8902C58.5413 22.2861 58.7932 22.538 59.1171 22.538Z" fill="#474747"/>
<path d="M73.0792 25.8848C71.4958 25.8848 70.1284 25.5249 69.0488 24.8052C68.1131 24.1934 67.3934 23.3657 66.9256 22.3581C66.8176 22.1062 66.8896 21.7823 67.1775 21.6384L68.9048 20.6307C69.1927 20.4508 69.5526 20.5588 69.6965 20.8467C70.3803 22.1422 71.5318 22.7899 73.1512 22.7899C74.0509 22.7899 74.6986 22.646 75.0945 22.3221C75.5263 21.9982 75.7063 21.6024 75.7063 21.0986C75.7063 20.5228 75.4543 20.091 74.9505 19.7671C74.4467 19.4432 73.5471 19.1193 72.2156 18.7235C71.4958 18.5076 70.8841 18.2916 70.3803 18.0757C69.8765 17.8598 69.3727 17.5719 68.8688 17.212C68.365 16.8522 68.0052 16.3844 67.7173 15.8446C67.4654 15.3048 67.3214 14.657 67.3214 13.9013C67.3214 12.4259 67.8252 11.2743 68.8688 10.4106C69.9124 9.54695 71.172 9.11511 72.6114 9.11511C73.9069 9.11511 75.0585 9.43899 76.0661 10.0867C76.8938 10.6265 77.5775 11.3463 78.1173 12.2459C78.2613 12.5338 78.1893 12.8937 77.9014 13.0376L76.246 14.0093C75.9941 14.1532 75.6343 14.0812 75.4543 13.8293C74.8066 12.7857 73.8709 12.2459 72.6114 12.2459C71.9637 12.2459 71.4239 12.3899 71.064 12.6778C70.7041 12.9657 70.4882 13.3615 70.4882 13.8293C70.4882 14.3331 70.7041 14.765 71.136 15.0529C71.5678 15.3767 72.3595 15.7006 73.5831 16.0965C74.0869 16.2404 74.4467 16.3844 74.6986 16.4563C74.9505 16.5283 75.3104 16.6722 75.7422 16.8522C76.1741 17.0321 76.5339 17.212 76.7499 17.356C77.0018 17.4999 77.2537 17.7159 77.5775 17.9678C77.9014 18.2197 78.1173 18.5076 78.2973 18.7595C78.4412 19.0473 78.5852 19.3712 78.7291 19.7671C78.8371 20.1629 78.909 20.5948 78.909 21.0626C78.909 22.538 78.3692 23.7256 77.2897 24.6252C76.2101 25.4529 74.8066 25.8848 73.0792 25.8848Z" fill="#474747"/>
<path d="M94.4554 23.4736C92.836 25.093 90.8567 25.9207 88.5176 25.9207C86.1785 25.9207 84.1993 25.093 82.5799 23.4736C80.9605 21.8543 80.1328 19.875 80.1328 17.4999C80.1328 15.1608 80.9605 13.1456 82.5799 11.5262C84.1993 9.90679 86.1785 9.0791 88.5176 9.0791C90.8567 9.0791 92.836 9.90679 94.4554 11.5262C96.0748 13.1456 96.9025 15.1248 96.9025 17.4999C96.9025 19.839 96.0748 21.8543 94.4554 23.4736ZM84.811 21.2785C85.8187 22.2861 87.0422 22.7539 88.5176 22.7539C89.9931 22.7539 91.2166 22.2501 92.2242 21.2785C93.2318 20.2709 93.7357 19.0113 93.7357 17.4999C93.7357 15.9525 93.2318 14.693 92.2242 13.6854C91.2166 12.6777 89.9931 12.1739 88.5176 12.1739C87.0422 12.1739 85.8187 12.6777 84.811 13.6854C83.8034 14.693 83.2996 15.9525 83.2996 17.4999C83.2996 19.0473 83.8034 20.3068 84.811 21.2785Z" fill="#474747"/>
<path d="M102.876 22.538H107.878C108.202 22.538 108.454 22.7899 108.454 23.1138V24.9851C108.454 25.3089 108.202 25.5608 107.878 25.5608H99.7091C99.3852 25.5608 99.1333 25.3089 99.1333 24.9851V10.0147C99.1333 9.69087 99.3852 9.43896 99.7091 9.43896H101.724C102.048 9.43896 102.3 9.69087 102.3 10.0147V21.9622C102.3 22.2861 102.588 22.538 102.876 22.538Z" fill="#474747"/>
<path d="M112.737 25.165L107.698 10.1947C107.59 9.83481 107.842 9.43896 108.238 9.43896H110.469C110.721 9.43896 110.937 9.6189 111.009 9.83481L114.284 20.0909C114.464 20.6307 115.22 20.6307 115.399 20.0909L118.638 9.83481C118.71 9.58291 118.926 9.43896 119.178 9.43896H121.445C121.841 9.43896 122.129 9.83481 121.985 10.1947L116.947 25.165C116.875 25.4169 116.659 25.5608 116.407 25.5608H113.312C113.024 25.5608 112.808 25.4169 112.737 25.165Z" fill="#474747"/>
<path d="M127.562 22.538H133.212C133.536 22.538 133.788 22.7899 133.788 23.1138V24.9851C133.788 25.3089 133.536 25.5608 133.212 25.5608H124.395C124.071 25.5608 123.819 25.3089 123.819 24.9851V10.0147C123.819 9.69087 124.071 9.43896 124.395 9.43896H133.104C133.428 9.43896 133.68 9.69087 133.68 10.0147V11.886C133.68 12.2099 133.428 12.4618 133.104 12.4618H127.562C127.238 12.4618 126.986 12.7137 126.986 13.0376V15.3047C126.986 15.6286 127.238 15.8805 127.562 15.8805H132.528C132.852 15.8805 133.104 16.1324 133.104 16.4563V18.2916C133.104 18.6155 132.852 18.8674 132.528 18.8674H127.562C127.238 18.8674 126.986 19.1193 126.986 19.4432V21.8902C126.986 22.2861 127.238 22.538 127.562 22.538Z" fill="#474747"/>
<path d="M31.8389 15.017L27.5566 19.2994C27.1607 19.6952 26.5489 19.6952 26.1891 19.2994L17.3724 10.4827C17.1205 10.2308 16.6887 10.2308 16.4368 10.4827L9.88725 17.0322C9.63535 17.2841 9.63535 17.716 9.88725 17.9679L11.4707 19.5513C11.7226 19.8032 12.1544 19.8032 12.4063 19.5513L16.2208 15.7367C16.6167 15.3409 17.2285 15.3409 17.5883 15.7367L23.67 21.7824C24.0659 22.1783 24.0659 22.79 23.67 23.1499L17.4444 29.4115C17.1565 29.6994 16.6527 29.6994 16.3288 29.4115L14.9253 28.0081C14.6375 27.7202 14.6375 27.2164 14.9253 26.8925L18.8838 22.934C19.1357 22.6821 19.1357 22.2502 18.8838 21.9983L17.3004 20.4149C17.0485 20.163 16.6167 20.163 16.3648 20.4149L12.6222 24.2655C12.2264 24.6613 11.6146 24.6613 11.2547 24.2655L5.13705 18.1838C4.7412 17.7879 4.7412 17.1762 5.13705 16.8163L16.2208 5.73251C16.6167 5.33666 17.2285 5.33666 17.5883 5.73251L26.1531 14.2973C26.5489 14.6931 27.1607 14.6931 27.5206 14.2973L29.3199 12.4979L17.7683 0.946326C17.3004 0.478503 16.5087 0.478503 16.0409 0.946326L0.350867 16.6364C-0.116956 17.1042 -0.116956 17.8959 0.350867 18.3637L16.0409 34.0538C16.5087 34.5216 17.3004 34.5216 17.7683 34.0538L33.4583 18.3637C33.9261 17.8959 33.9261 17.1042 33.4583 16.6364L31.8389 15.017Z" fill="#474747"/>
<path d="M33.7824 11.9942L32.3789 10.5907C32.091 10.3028 31.5872 10.3028 31.2633 10.5907L29.3201 12.534L27.5207 14.3333C27.1249 14.7291 26.5131 14.7291 26.1533 14.3333L17.5885 5.73256C17.1926 5.33671 16.5809 5.33671 16.221 5.73256L5.13722 16.8164C4.74137 17.2122 4.74137 17.824 5.13722 18.1838L11.2189 24.2655C11.6148 24.6614 12.2265 24.6614 12.5864 24.2655L16.4369 20.451C16.6888 20.1991 17.1207 20.1991 17.3726 20.451L18.956 22.0344C19.2079 22.2863 19.2079 22.7181 18.956 22.97L14.9975 26.9285C14.7096 27.2164 14.7096 27.7202 14.9975 28.0441L16.4009 29.4476C16.6888 29.7355 17.1926 29.7355 17.5165 29.4476L23.7422 23.2219C24.138 22.8261 24.138 22.2143 23.7422 21.8544L17.5885 15.7008C17.1926 15.3049 16.5809 15.3049 16.221 15.7008L12.4065 19.5153C12.1546 19.7672 11.7227 19.7672 11.4708 19.5153L9.88742 17.9319C9.63551 17.68 9.63551 17.2482 9.88742 16.9963L16.4369 10.4828C16.6888 10.2308 17.1207 10.2308 17.3726 10.4828L26.1892 19.2994C26.5851 19.6953 27.1969 19.6953 27.5567 19.2994L31.8391 15.017L33.7824 13.0738C34.0702 12.7859 34.0702 12.2821 33.7824 11.9942Z" fill="#7FE786"/>
</svg>
